# Blender v3.1.2 OBJ File: 'seamless_cube.blend'
# www.blender.org
mtllib seamless_cube.mtl
o Cube
v -1.000000 1.000000 1.000000
v -1.000000 -1.000000 1.000000
v -1.000000 1.000000 -1.000000
v -1.000000 -1.000000 -1.000000
v 1.000000 1.000000 1.000000
v 1.000000 -1.000000 1.000000
v 1.000000 1.000000 -1.000000
v 1.000000 -1.000000 -1.000000
vt 2.023998 -1.023998
vt -1.023998 2.023998
vt -1.023998 -1.023998
vt 1.000000 0.000000
vt 0.000000 1.000000
vt 0.000000 0.000000
vt 1.000000 0.000000
vt 0.000000 1.000000
vt 0.000000 0.000000
vt 0.497048 -0.207101
vt 0.502952 1.207101
vt -0.207101 0.502952
vt 1.000000 0.000000
vt 0.000000 1.000000
vt 0.000000 0.000000
vt 2.023998 2.023998
vt 1.000000 1.000000
vt 1.000000 1.000000
vt 1.207101 0.497048
vt 1.000000 1.000000
vt 1.000751 0.999248
vt -0.000751 0.000752
vt 0.999248 -0.000751
vt 0.000752 1.000751
vn 0.0000 1.0000 0.0000
vn 0.0000 0.0000 -1.0000
vn 1.0000 0.0000 0.0000
vn 0.0000 -1.0000 0.0000
vn -1.0000 0.0000 0.0000
vn 0.0000 0.0000 1.0000
usemtl 1st_Texture_Material
s off
f 5/1/1 3/2/1 1/3/1
f 3/4/2 8/5/2 4/6/2
f 7/7/3 6/8/3 8/9/3
f 2/10/4 8/11/4 6/12/4
f 1/13/5 4/14/5 2/15/5
f 5/1/1 7/16/1 3/2/1
f 3/4/2 7/17/2 8/5/2
f 7/7/3 5/18/3 6/8/3
f 2/10/4 4/19/4 8/11/4
f 1/13/5 3/20/5 4/14/5
usemtl Determined
f 5/21/6 2/22/6 6/23/6
f 5/21/6 1/24/6 2/22/6
